<mxfile host="app.diagrams.net" agent="Mozilla/5.0 (Windows NT 10.0; Win64; x64) AppleWebKit/537.36 (KHTML, like Gecko) Chrome/129.0.0.0 Safari/537.36" version="24.7.17">
  <diagram name="PÃ¡gina-1" id="HpcF04neRlfk61U_BmMo">
    <mxGraphModel dx="1600" dy="924" grid="1" gridSize="10" guides="1" tooltips="1" connect="1" arrows="1" fold="1" page="1" pageScale="1" pageWidth="827" pageHeight="1169" math="0" shadow="0">
      <root>
        <mxCell id="0" />
        <mxCell id="1" parent="0" />
        <mxCell id="HlTpHQT_LpQZvoVh_AyP-1" value="Registro de usuario" style="swimlane;whiteSpace=wrap;html=1;" vertex="1" parent="1">
          <mxGeometry x="24" y="50" width="1810" height="710" as="geometry" />
        </mxCell>
        <mxCell id="HlTpHQT_LpQZvoVh_AyP-2" style="edgeStyle=orthogonalEdgeStyle;rounded=0;orthogonalLoop=1;jettySize=auto;html=1;entryX=0;entryY=0.5;entryDx=0;entryDy=0;endArrow=none;endFill=0;" edge="1" parent="HlTpHQT_LpQZvoVh_AyP-1" source="HlTpHQT_LpQZvoVh_AyP-3" target="HlTpHQT_LpQZvoVh_AyP-7">
          <mxGeometry relative="1" as="geometry">
            <Array as="points">
              <mxPoint x="170" y="510" />
              <mxPoint x="170" y="510" />
            </Array>
          </mxGeometry>
        </mxCell>
        <mxCell id="HlTpHQT_LpQZvoVh_AyP-3" value="Usuario" style="shape=umlActor;verticalLabelPosition=bottom;verticalAlign=top;html=1;outlineConnect=0;" vertex="1" parent="HlTpHQT_LpQZvoVh_AyP-1">
          <mxGeometry x="30" y="440" width="50" height="90" as="geometry" />
        </mxCell>
        <mxCell id="HlTpHQT_LpQZvoVh_AyP-4" style="edgeStyle=orthogonalEdgeStyle;rounded=0;orthogonalLoop=1;jettySize=auto;html=1;endArrow=none;endFill=0;" edge="1" parent="HlTpHQT_LpQZvoVh_AyP-1" source="HlTpHQT_LpQZvoVh_AyP-5" target="HlTpHQT_LpQZvoVh_AyP-10">
          <mxGeometry relative="1" as="geometry">
            <Array as="points">
              <mxPoint x="850" y="150" />
              <mxPoint x="850" y="150" />
            </Array>
          </mxGeometry>
        </mxCell>
        <mxCell id="HlTpHQT_LpQZvoVh_AyP-5" value="BaseRouter" style="rounded=0;whiteSpace=wrap;html=1;" vertex="1" parent="HlTpHQT_LpQZvoVh_AyP-1">
          <mxGeometry x="460" y="110" width="120" height="60" as="geometry" />
        </mxCell>
        <mxCell id="HlTpHQT_LpQZvoVh_AyP-6" style="edgeStyle=orthogonalEdgeStyle;rounded=0;orthogonalLoop=1;jettySize=auto;html=1;endArrow=none;endFill=0;" edge="1" parent="HlTpHQT_LpQZvoVh_AyP-1" source="HlTpHQT_LpQZvoVh_AyP-7" target="HlTpHQT_LpQZvoVh_AyP-5">
          <mxGeometry relative="1" as="geometry">
            <Array as="points">
              <mxPoint x="520" y="360" />
              <mxPoint x="520" y="360" />
            </Array>
          </mxGeometry>
        </mxCell>
        <mxCell id="HlTpHQT_LpQZvoVh_AyP-7" value="App" style="rounded=0;whiteSpace=wrap;html=1;" vertex="1" parent="HlTpHQT_LpQZvoVh_AyP-1">
          <mxGeometry x="470" y="470" width="140" height="80" as="geometry" />
        </mxCell>
        <mxCell id="HlTpHQT_LpQZvoVh_AyP-8" value="API" style="rounded=0;whiteSpace=wrap;html=1;" vertex="1" parent="HlTpHQT_LpQZvoVh_AyP-1">
          <mxGeometry x="1280" y="550" width="170" height="130" as="geometry" />
        </mxCell>
        <mxCell id="HlTpHQT_LpQZvoVh_AyP-9" style="edgeStyle=orthogonalEdgeStyle;rounded=0;orthogonalLoop=1;jettySize=auto;html=1;endArrow=none;endFill=0;" edge="1" parent="HlTpHQT_LpQZvoVh_AyP-1" source="HlTpHQT_LpQZvoVh_AyP-10" target="HlTpHQT_LpQZvoVh_AyP-8">
          <mxGeometry relative="1" as="geometry">
            <Array as="points">
              <mxPoint x="1375" y="420" />
              <mxPoint x="1375" y="420" />
            </Array>
          </mxGeometry>
        </mxCell>
        <mxCell id="HlTpHQT_LpQZvoVh_AyP-10" value="Register" style="rounded=0;whiteSpace=wrap;html=1;" vertex="1" parent="HlTpHQT_LpQZvoVh_AyP-1">
          <mxGeometry x="1320" y="140" width="170" height="70" as="geometry" />
        </mxCell>
        <mxCell id="HlTpHQT_LpQZvoVh_AyP-11" value="" style="endArrow=classic;html=1;rounded=0;" edge="1" parent="HlTpHQT_LpQZvoVh_AyP-1">
          <mxGeometry width="50" height="50" relative="1" as="geometry">
            <mxPoint x="200" y="450" as="sourcePoint" />
            <mxPoint x="400" y="460" as="targetPoint" />
          </mxGeometry>
        </mxCell>
        <mxCell id="HlTpHQT_LpQZvoVh_AyP-12" value="&lt;span style=&quot;font-size: 12px; background-color: rgb(251, 251, 251);&quot;&gt;1:Selecciona Registrarse&lt;/span&gt;" style="edgeLabel;html=1;align=center;verticalAlign=middle;resizable=0;points=[];" vertex="1" connectable="0" parent="HlTpHQT_LpQZvoVh_AyP-11">
          <mxGeometry x="-0.1067" y="-2" relative="1" as="geometry">
            <mxPoint x="10" as="offset" />
          </mxGeometry>
        </mxCell>
        <mxCell id="HlTpHQT_LpQZvoVh_AyP-13" value="" style="endArrow=open;html=1;rounded=0;endFill=0;dashed=1;dashPattern=12 12;" edge="1" parent="HlTpHQT_LpQZvoVh_AyP-1">
          <mxGeometry width="50" height="50" relative="1" as="geometry">
            <mxPoint x="420" y="490" as="sourcePoint" />
            <mxPoint x="210" y="480" as="targetPoint" />
          </mxGeometry>
        </mxCell>
        <mxCell id="HlTpHQT_LpQZvoVh_AyP-14" value="1.5:Muestra pagina de registro" style="edgeLabel;html=1;align=center;verticalAlign=middle;resizable=0;points=[];" vertex="1" connectable="0" parent="HlTpHQT_LpQZvoVh_AyP-13">
          <mxGeometry x="-0.0828" y="-3" relative="1" as="geometry">
            <mxPoint x="1" as="offset" />
          </mxGeometry>
        </mxCell>
        <mxCell id="HlTpHQT_LpQZvoVh_AyP-15" value="" style="endArrow=classic;html=1;rounded=0;" edge="1" parent="HlTpHQT_LpQZvoVh_AyP-1">
          <mxGeometry width="50" height="50" relative="1" as="geometry">
            <mxPoint x="492" y="390" as="sourcePoint" />
            <mxPoint x="492" y="190" as="targetPoint" />
          </mxGeometry>
        </mxCell>
        <mxCell id="HlTpHQT_LpQZvoVh_AyP-16" value="&lt;span style=&quot;font-size: 12px; background-color: rgb(251, 251, 251);&quot;&gt;1.1:Peticion de cambio de pagina Registro&lt;/span&gt;" style="edgeLabel;html=1;align=center;verticalAlign=middle;resizable=0;points=[];" vertex="1" connectable="0" parent="HlTpHQT_LpQZvoVh_AyP-15">
          <mxGeometry x="0.0013" y="2" relative="1" as="geometry">
            <mxPoint x="-94" y="-10" as="offset" />
          </mxGeometry>
        </mxCell>
        <mxCell id="HlTpHQT_LpQZvoVh_AyP-17" value="" style="endArrow=open;html=1;rounded=0;endFill=0;dashed=1;dashPattern=12 12;" edge="1" parent="HlTpHQT_LpQZvoVh_AyP-1">
          <mxGeometry width="50" height="50" relative="1" as="geometry">
            <mxPoint x="560" y="200" as="sourcePoint" />
            <mxPoint x="560" y="390" as="targetPoint" />
          </mxGeometry>
        </mxCell>
        <mxCell id="HlTpHQT_LpQZvoVh_AyP-18" value="&lt;span style=&quot;font-size: 12px; background-color: rgb(251, 251, 251);&quot;&gt;1.4:Reedirecciona al registro&lt;/span&gt;" style="edgeLabel;html=1;align=center;verticalAlign=middle;resizable=0;points=[];" vertex="1" connectable="0" parent="HlTpHQT_LpQZvoVh_AyP-17">
          <mxGeometry x="-0.085" y="-4" relative="1" as="geometry">
            <mxPoint x="54" y="-1" as="offset" />
          </mxGeometry>
        </mxCell>
        <mxCell id="HlTpHQT_LpQZvoVh_AyP-19" value="" style="endArrow=classic;html=1;rounded=0;" edge="1" parent="HlTpHQT_LpQZvoVh_AyP-1">
          <mxGeometry width="50" height="50" relative="1" as="geometry">
            <mxPoint x="820" y="130" as="sourcePoint" />
            <mxPoint x="1070" y="130" as="targetPoint" />
          </mxGeometry>
        </mxCell>
        <mxCell id="HlTpHQT_LpQZvoVh_AyP-20" value="&lt;span style=&quot;font-size: 12px; background-color: rgb(251, 251, 251);&quot;&gt;1.2:Pide direccion de la pagina&lt;/span&gt;" style="edgeLabel;html=1;align=center;verticalAlign=middle;resizable=0;points=[];" vertex="1" connectable="0" parent="HlTpHQT_LpQZvoVh_AyP-19">
          <mxGeometry x="0.5627" y="-2" relative="1" as="geometry">
            <mxPoint x="-65" y="-2" as="offset" />
          </mxGeometry>
        </mxCell>
        <mxCell id="HlTpHQT_LpQZvoVh_AyP-21" value="" style="endArrow=classic;html=1;rounded=0;" edge="1" parent="HlTpHQT_LpQZvoVh_AyP-1">
          <mxGeometry width="50" height="50" relative="1" as="geometry">
            <mxPoint x="1450" y="290" as="sourcePoint" />
            <mxPoint x="1450" y="460" as="targetPoint" />
            <Array as="points" />
          </mxGeometry>
        </mxCell>
        <mxCell id="HlTpHQT_LpQZvoVh_AyP-22" value="2.3:Enviar datos" style="edgeLabel;html=1;align=center;verticalAlign=middle;resizable=0;points=[];" vertex="1" connectable="0" parent="HlTpHQT_LpQZvoVh_AyP-21">
          <mxGeometry x="0.1743" y="2" relative="1" as="geometry">
            <mxPoint x="18" y="-10" as="offset" />
          </mxGeometry>
        </mxCell>
        <mxCell id="HlTpHQT_LpQZvoVh_AyP-23" value="" style="endArrow=open;html=1;rounded=0;endFill=0;dashed=1;dashPattern=12 12;" edge="1" parent="HlTpHQT_LpQZvoVh_AyP-1">
          <mxGeometry width="50" height="50" relative="1" as="geometry">
            <mxPoint x="1320" y="500" as="sourcePoint" />
            <mxPoint x="1320" y="320" as="targetPoint" />
          </mxGeometry>
        </mxCell>
        <mxCell id="HlTpHQT_LpQZvoVh_AyP-24" value="2.6[Datos no validos]:Notificar invalidez de los datos" style="edgeLabel;html=1;align=center;verticalAlign=middle;resizable=0;points=[];" vertex="1" connectable="0" parent="HlTpHQT_LpQZvoVh_AyP-23">
          <mxGeometry x="0.3346" relative="1" as="geometry">
            <mxPoint x="-80" y="10" as="offset" />
          </mxGeometry>
        </mxCell>
        <mxCell id="HlTpHQT_LpQZvoVh_AyP-25" value="2.7[Datos validos]:Notificar que se guardo exitosamente" style="edgeLabel;html=1;align=center;verticalAlign=middle;resizable=0;points=[];" vertex="1" connectable="0" parent="HlTpHQT_LpQZvoVh_AyP-23">
          <mxGeometry x="-0.4074" y="3" relative="1" as="geometry">
            <mxPoint x="-87" y="-17" as="offset" />
          </mxGeometry>
        </mxCell>
        <mxCell id="HlTpHQT_LpQZvoVh_AyP-26" value="" style="endArrow=open;html=1;rounded=0;endFill=0;dashed=1;dashPattern=12 12;" edge="1" parent="HlTpHQT_LpQZvoVh_AyP-1">
          <mxGeometry width="50" height="50" relative="1" as="geometry">
            <mxPoint x="1020" y="174.17" as="sourcePoint" />
            <mxPoint x="800" y="174.17" as="targetPoint" />
          </mxGeometry>
        </mxCell>
        <mxCell id="HlTpHQT_LpQZvoVh_AyP-27" value="&lt;span style=&quot;font-size: 12px; background-color: rgb(251, 251, 251);&quot;&gt;1.3:Entrega direccion&lt;/span&gt;" style="edgeLabel;html=1;align=center;verticalAlign=middle;resizable=0;points=[];" vertex="1" connectable="0" parent="HlTpHQT_LpQZvoVh_AyP-26">
          <mxGeometry x="0.103" y="-5" relative="1" as="geometry">
            <mxPoint x="32" y="5" as="offset" />
          </mxGeometry>
        </mxCell>
        <mxCell id="HlTpHQT_LpQZvoVh_AyP-28" value="" style="endArrow=none;html=1;rounded=0;entryX=0;entryY=1;entryDx=0;entryDy=0;exitX=1;exitY=0.5;exitDx=0;exitDy=0;endFill=0;" edge="1" parent="HlTpHQT_LpQZvoVh_AyP-1" source="HlTpHQT_LpQZvoVh_AyP-7" target="HlTpHQT_LpQZvoVh_AyP-10">
          <mxGeometry width="50" height="50" relative="1" as="geometry">
            <mxPoint x="650" y="450" as="sourcePoint" />
            <mxPoint x="830" y="340" as="targetPoint" />
          </mxGeometry>
        </mxCell>
        <mxCell id="HlTpHQT_LpQZvoVh_AyP-29" value="" style="endArrow=classic;html=1;rounded=0;" edge="1" parent="HlTpHQT_LpQZvoVh_AyP-1">
          <mxGeometry width="50" height="50" relative="1" as="geometry">
            <mxPoint x="820" y="370" as="sourcePoint" />
            <mxPoint x="1170" y="240" as="targetPoint" />
          </mxGeometry>
        </mxCell>
        <mxCell id="HlTpHQT_LpQZvoVh_AyP-30" value="2.2:Envio de datos para ser revisados" style="edgeLabel;html=1;align=center;verticalAlign=middle;resizable=0;points=[];" vertex="1" connectable="0" parent="HlTpHQT_LpQZvoVh_AyP-29">
          <mxGeometry x="-0.2113" y="3" relative="1" as="geometry">
            <mxPoint x="-17" y="-26" as="offset" />
          </mxGeometry>
        </mxCell>
        <mxCell id="HlTpHQT_LpQZvoVh_AyP-31" value="" style="endArrow=open;html=1;rounded=0;endFill=0;dashed=1;dashPattern=12 12;" edge="1" parent="HlTpHQT_LpQZvoVh_AyP-1">
          <mxGeometry width="50" height="50" relative="1" as="geometry">
            <mxPoint x="1070" y="340" as="sourcePoint" />
            <mxPoint x="700" y="500" as="targetPoint" />
          </mxGeometry>
        </mxCell>
        <mxCell id="HlTpHQT_LpQZvoVh_AyP-32" value="2.7[Datos no validos]:Mostrar mensaje de error de datos" style="edgeLabel;html=1;align=center;verticalAlign=middle;resizable=0;points=[];" vertex="1" connectable="0" parent="HlTpHQT_LpQZvoVh_AyP-31">
          <mxGeometry x="0.4265" y="-4" relative="1" as="geometry">
            <mxPoint x="85" y="10" as="offset" />
          </mxGeometry>
        </mxCell>
        <mxCell id="HlTpHQT_LpQZvoVh_AyP-33" value="2.8[Datos validos]:Notificar registro completado" style="edgeLabel;html=1;align=center;verticalAlign=middle;resizable=0;points=[];" vertex="1" connectable="0" parent="HlTpHQT_LpQZvoVh_AyP-31">
          <mxGeometry x="0.7337" y="-1" relative="1" as="geometry">
            <mxPoint x="122" y="12" as="offset" />
          </mxGeometry>
        </mxCell>
        <mxCell id="HlTpHQT_LpQZvoVh_AyP-34" value="" style="endArrow=classic;html=1;rounded=0;" edge="1" parent="HlTpHQT_LpQZvoVh_AyP-1">
          <mxGeometry width="50" height="50" relative="1" as="geometry">
            <mxPoint x="450" y="530" as="sourcePoint" />
            <mxPoint x="230" y="530" as="targetPoint" />
          </mxGeometry>
        </mxCell>
        <mxCell id="HlTpHQT_LpQZvoVh_AyP-35" value="2:Pide rellenar formulario de registro" style="edgeLabel;html=1;align=center;verticalAlign=middle;resizable=0;points=[];" vertex="1" connectable="0" parent="HlTpHQT_LpQZvoVh_AyP-34">
          <mxGeometry x="-0.6446" relative="1" as="geometry">
            <mxPoint x="-71" as="offset" />
          </mxGeometry>
        </mxCell>
        <mxCell id="HlTpHQT_LpQZvoVh_AyP-36" value="" style="endArrow=classic;html=1;rounded=0;" edge="1" parent="HlTpHQT_LpQZvoVh_AyP-1">
          <mxGeometry width="50" height="50" relative="1" as="geometry">
            <mxPoint x="210" y="550" as="sourcePoint" />
            <mxPoint x="450" y="550" as="targetPoint" />
          </mxGeometry>
        </mxCell>
        <mxCell id="HlTpHQT_LpQZvoVh_AyP-37" value="2.1:Rellena con sus datos el formulario" style="edgeLabel;html=1;align=center;verticalAlign=middle;resizable=0;points=[];" vertex="1" connectable="0" parent="HlTpHQT_LpQZvoVh_AyP-36">
          <mxGeometry x="0.5254" relative="1" as="geometry">
            <mxPoint x="-57" as="offset" />
          </mxGeometry>
        </mxCell>
        <mxCell id="HlTpHQT_LpQZvoVh_AyP-38" value="" style="endArrow=open;html=1;rounded=0;endFill=0;dashed=1;dashPattern=12 12;" edge="1" parent="HlTpHQT_LpQZvoVh_AyP-1">
          <mxGeometry width="50" height="50" relative="1" as="geometry">
            <mxPoint x="440" y="600" as="sourcePoint" />
            <mxPoint x="200" y="600" as="targetPoint" />
          </mxGeometry>
        </mxCell>
        <mxCell id="HlTpHQT_LpQZvoVh_AyP-39" value="2.8[Datos no validos]:Notificar que los&amp;nbsp; datos no son validos" style="edgeLabel;html=1;align=center;verticalAlign=middle;resizable=0;points=[];" vertex="1" connectable="0" parent="HlTpHQT_LpQZvoVh_AyP-38">
          <mxGeometry x="0.4869" y="-5" relative="1" as="geometry">
            <mxPoint x="89" y="20" as="offset" />
          </mxGeometry>
        </mxCell>
        <mxCell id="HlTpHQT_LpQZvoVh_AyP-40" value="2.9[Datos validos]:Notificar que se registro con exito" style="edgeLabel;html=1;align=center;verticalAlign=middle;resizable=0;points=[];" vertex="1" connectable="0" parent="HlTpHQT_LpQZvoVh_AyP-38">
          <mxGeometry x="-0.2512" y="-3" relative="1" as="geometry">
            <mxPoint x="-20" y="43" as="offset" />
          </mxGeometry>
        </mxCell>
        <mxCell id="HlTpHQT_LpQZvoVh_AyP-41" value="2.5[Datos no validos]:Datos no aceptados en la base de datos" style="html=1;verticalAlign=bottom;startArrow=circle;startFill=1;endArrow=open;startSize=6;endSize=8;curved=0;rounded=0;dashed=1;dashPattern=12 12;entryX=1;entryY=0;entryDx=0;entryDy=5;entryPerimeter=0;" edge="1" parent="HlTpHQT_LpQZvoVh_AyP-1">
          <mxGeometry x="-1" y="-32" width="80" relative="1" as="geometry">
            <mxPoint x="1580" y="600" as="sourcePoint" />
            <mxPoint x="1450" y="600" as="targetPoint" />
            <mxPoint x="30" y="22" as="offset" />
          </mxGeometry>
        </mxCell>
        <mxCell id="HlTpHQT_LpQZvoVh_AyP-42" value="2.6[Datos validos]:Notificar registro completado" style="html=1;verticalAlign=bottom;startArrow=circle;startFill=1;endArrow=open;startSize=6;endSize=8;curved=0;rounded=0;dashed=1;dashPattern=12 12;entryX=1;entryY=0;entryDx=0;entryDy=5;entryPerimeter=0;" edge="1" parent="HlTpHQT_LpQZvoVh_AyP-1">
          <mxGeometry x="-1" y="-32" width="80" relative="1" as="geometry">
            <mxPoint x="1580" y="670" as="sourcePoint" />
            <mxPoint x="1450" y="670" as="targetPoint" />
            <mxPoint x="30" y="22" as="offset" />
          </mxGeometry>
        </mxCell>
        <mxCell id="HlTpHQT_LpQZvoVh_AyP-43" value="" style="group" vertex="1" connectable="0" parent="1">
          <mxGeometry x="1474" y="610" width="120" as="geometry" />
        </mxCell>
        <mxCell id="HlTpHQT_LpQZvoVh_AyP-44" value="2.4:Comparar datos con los registrados en la base de datos" style="html=1;verticalAlign=bottom;startArrow=none;startFill=0;endArrow=oval;curved=0;rounded=0;endFill=1;targetPerimeterSpacing=2;endSize=14;" edge="1" parent="HlTpHQT_LpQZvoVh_AyP-43">
          <mxGeometry x="1" y="21" width="80" relative="1" as="geometry">
            <mxPoint as="sourcePoint" />
            <mxPoint x="120" as="targetPoint" />
            <mxPoint x="6" y="1" as="offset" />
            <Array as="points">
              <mxPoint x="56" />
            </Array>
          </mxGeometry>
        </mxCell>
        <mxCell id="HlTpHQT_LpQZvoVh_AyP-45" value="" style="endArrow=open;endFill=1;endSize=12;html=1;rounded=0;" edge="1" parent="HlTpHQT_LpQZvoVh_AyP-43">
          <mxGeometry width="160" relative="1" as="geometry">
            <mxPoint as="sourcePoint" />
            <mxPoint x="112" as="targetPoint" />
          </mxGeometry>
        </mxCell>
        <mxCell id="HlTpHQT_LpQZvoVh_AyP-46" value="" style="group" vertex="1" connectable="0" parent="1">
          <mxGeometry x="1474" y="690" width="120" as="geometry" />
        </mxCell>
        <mxCell id="HlTpHQT_LpQZvoVh_AyP-47" value="2.5[Datos validos]:Guardar datos usuario a la base de datos" style="html=1;verticalAlign=bottom;startArrow=none;startFill=0;endArrow=oval;curved=0;rounded=0;endFill=1;targetPerimeterSpacing=2;endSize=14;" edge="1" parent="HlTpHQT_LpQZvoVh_AyP-46">
          <mxGeometry x="1" y="71" width="80" relative="1" as="geometry">
            <mxPoint as="sourcePoint" />
            <mxPoint x="120" as="targetPoint" />
            <mxPoint x="70" y="61" as="offset" />
            <Array as="points">
              <mxPoint x="56" />
            </Array>
          </mxGeometry>
        </mxCell>
        <mxCell id="HlTpHQT_LpQZvoVh_AyP-48" value="" style="endArrow=open;endFill=1;endSize=12;html=1;rounded=0;" edge="1" parent="HlTpHQT_LpQZvoVh_AyP-46">
          <mxGeometry width="160" relative="1" as="geometry">
            <mxPoint as="sourcePoint" />
            <mxPoint x="112" as="targetPoint" />
          </mxGeometry>
        </mxCell>
      </root>
    </mxGraphModel>
  </diagram>
</mxfile>
